<svg width="61" height="22" xmlns="http://www.w3.org/2000/svg"><path fill="#fff" d="M19.458 20.308V6.945l-5.332 13.363h-3.69L5.104 7.116v13.192H.78V.15h5.938l5.62 13.619L17.672.15h6.255v20.158h-4.468Z"/><path fill="#FF8944" d="M37.823 18.516c0 .492.007.912.021 1.26.03.333.05.557.065.673h-3.156a9.289 9.289 0 0 1-.065-.413 8.891 8.891 0 0 1-.021-.63c-.245.377-.627.688-1.146.934-.504.232-1.08.348-1.73.348a5.37 5.37 0 0 1-2.118-.413 5.353 5.353 0 0 1-1.686-1.173 5.604 5.604 0 0 1-1.124-1.802 6.47 6.47 0 0 1-.39-2.28c0-.797.13-1.535.39-2.216.26-.695.62-1.296 1.08-1.802a4.753 4.753 0 0 1 1.644-1.173 4.988 4.988 0 0 1 2.096-.435c.462 0 .858.044 1.19.13.33.073.612.167.843.283.23.101.41.217.54.348.144.13.252.246.324.347V4.725h3.243v13.791Zm-8.042-3.475c0 .449.065.84.195 1.173.13.333.302.615.518.847.231.217.49.384.779.5.302.115.612.173.93.173.316 0 .619-.058.907-.174.303-.115.562-.282.779-.5.23-.23.41-.513.54-.846.13-.333.194-.724.194-1.173 0-.449-.064-.84-.194-1.173a2.219 2.219 0 0 0-.54-.825 1.851 1.851 0 0 0-.779-.5 2.41 2.41 0 0 0-.908-.173 2.58 2.58 0 0 0-.93.174 2.05 2.05 0 0 0-.777.5 2.37 2.37 0 0 0-.52.824c-.129.333-.194.724-.194 1.173Z"/><path fill="#fff" d="M38.976 20.308V.15h12.677v4.237h-8.216v3.838h7.454v3.952h-7.454v3.866h8.245v4.265H38.975Z"/><path fill="#FDD365" d="M55 17.65c0-.41.078-.79.234-1.142.156-.37.37-.693.644-.966.273-.273.585-.488.937-.644.37-.156.76-.234 1.17-.234.41 0 .79.078 1.142.234.37.156.692.37.966.644.292.273.517.595.673.966.156.351.234.732.234 1.141 0 .41-.078.8-.234 1.171-.156.351-.38.664-.673.937a2.992 2.992 0 0 1-.966.644 2.515 2.515 0 0 1-1.142.263c-.41 0-.8-.088-1.17-.263a3.087 3.087 0 0 1-.937-.644 3.087 3.087 0 0 1-.644-.937A2.987 2.987 0 0 1 55 17.65Z"/></svg>